<?xml version="1.0" standalone="no"?>
<!DOCTYPE svg PUBLIC "-//W3C//DTD SVG 20010904//EN"
 "http://www.w3.org/TR/2001/REC-SVG-20010904/DTD/svg10.dtd">
<svg version="1.0" xmlns="http://www.w3.org/2000/svg"
 width="150.000000pt" height="150.000000pt" viewBox="0 0 150.000000 150.000000"
 preserveAspectRatio="xMidYMid meet">
<metadata>
Created by potrace 1.14, written by Peter Selinger 2001-2017
</metadata>
<g transform="translate(0.000000,150.000000) scale(0.100000,-0.100000)"
fill="#000000" stroke="none">
<path d="M46 1452 c-4 -7 -8 -73 -6 -119 0 -10 0 -65 0 -123 -1 -58 -1 -112 0
-120 0 -8 0 -62 0 -120 -1 -58 -1 -112 0 -120 0 -8 0 -62 0 -120 -1 -58 -1
-112 0 -120 0 -8 0 -62 0 -120 -1 -58 -1 -112 0 -120 0 -8 0 -62 0 -120 -1
-58 -1 -112 0 -120 0 -8 1 -26 1 -40 -1 -38 10 -75 17 -64 9 12 65 12 74 -1 5
-7 8 -7 8 0 0 6 16 10 35 10 19 0 35 -4 35 -10 0 -7 3 -7 8 0 4 6 21 10 37 10
17 0 33 -4 37 -10 5 -6 8 -6 8 2 0 12 30 10 50 -2 6 -3 10 -2 10 2 0 10 53 9
69 -2 6 -3 11 -2 11 3 0 6 14 7 35 2 19 -4 35 -5 35 -1 0 11 54 7 62 -4 5 -6
8 -5 8 2 0 9 7 10 25 3 14 -5 25 -6 25 -2 0 11 54 9 62 -3 5 -6 8 -5 8 2 0 9
7 10 25 3 14 -5 25 -6 25 -2 0 9 64 7 79 -3 6 -3 11 -2 11 2 0 10 53 9 69 -2
6 -3 11 -3 11 2 0 4 20 8 45 8 25 0 45 -4 45 -10 0 -7 3 -7 8 0 4 6 21 10 37
10 17 0 33 -4 37 -10 5 -7 8 -7 8 0 0 6 16 10 35 10 19 0 35 -4 35 -10 0 -7 3
-7 8 0 4 6 21 10 37 10 17 0 33 -4 37 -10 5 -7 8 -7 8 0 0 6 16 10 35 10 19 0
35 -4 35 -10 0 -7 3 -7 8 0 4 6 21 10 37 10 17 0 33 -4 37 -10 5 -6 8 -6 8 2
0 6 9 10 20 8 11 -2 20 -1 21 3 1 10 1 1339 0 1385 l-1 37 -704 0 c-388 0
-707 -3 -710 -8z"/>
</g>
</svg>
